<?xml version="1.0" encoding="UTF-8" standalone="no"?>
<!DOCTYPE svg PUBLIC "-//W3C//DTD SVG 1.1//EN"
 "http://www.w3.org/Graphics/SVG/1.1/DTD/svg11.dtd">
<!-- Generated by graphviz version 10.0.1 (0)
 -->
<!-- Title: BST Pages: 1 -->
<svg width="207pt" height="188pt"
 viewBox="0.00 0.00 206.51 188.00" xmlns="http://www.w3.org/2000/svg" xmlns:xlink="http://www.w3.org/1999/xlink">
<g id="graph0" class="graph" transform="scale(1 1) rotate(0) translate(4 184)">
<title>BST</title>
<polygon fill="white" stroke="none" points="-4,4 -4,-184 202.51,-184 202.51,4 -4,4"/>
<!-- 664223387 -->
<g id="node1" class="node">
<title>664223387</title>
<ellipse fill="none" stroke="black" cx="121.51" cy="-162" rx="27.3" ry="18"/>
<text text-anchor="middle" x="121.51" y="-156.95" font-family="Times,serif" font-size="14.00">1.00</text>
</g>
<!-- 51228289 -->
<g id="node2" class="node">
<title>51228289</title>
<ellipse fill="none" stroke="black" cx="81.51" cy="-90" rx="27.3" ry="18"/>
<text text-anchor="middle" x="81.51" y="-84.95" font-family="Times,serif" font-size="14.00">0.50</text>
</g>
<!-- 664223387&#45;&gt;51228289 -->
<g id="edge1" class="edge">
<title>664223387&#45;&gt;51228289</title>
<path fill="none" stroke="black" d="M112.23,-144.76C107.54,-136.55 101.72,-126.37 96.42,-117.09"/>
<polygon fill="black" stroke="black" points="99.49,-115.41 91.49,-108.46 93.41,-118.88 99.49,-115.41"/>
</g>
<!-- 455896770 -->
<g id="node3" class="node">
<title>455896770</title>
<ellipse fill="#78f7c2" stroke="black" cx="162.51" cy="-90" rx="36" ry="18"/>
<text text-anchor="middle" x="162.51" y="-84.95" font-family="Times,serif" font-size="14.00">К 0.50</text>
</g>
<!-- 664223387&#45;&gt;455896770 -->
<g id="edge2" class="edge">
<title>664223387&#45;&gt;455896770</title>
<path fill="none" stroke="black" d="M131.02,-144.76C135.76,-136.67 141.62,-126.66 146.99,-117.49"/>
<polygon fill="black" stroke="black" points="149.97,-119.34 152,-108.94 143.93,-115.8 149.97,-119.34"/>
</g>
<!-- 1323165413 -->
<g id="node4" class="node">
<title>1323165413</title>
<ellipse fill="#78f7c2" stroke="black" cx="36.51" cy="-18" rx="36.51" ry="18"/>
<text text-anchor="middle" x="36.51" y="-12.95" font-family="Times,serif" font-size="14.00">И 0.40</text>
</g>
<!-- 51228289&#45;&gt;1323165413 -->
<g id="edge3" class="edge">
<title>51228289&#45;&gt;1323165413</title>
<path fill="none" stroke="black" d="M71.3,-73.12C65.91,-64.73 59.16,-54.24 53.05,-44.73"/>
<polygon fill="black" stroke="black" points="56.16,-43.1 47.81,-36.58 50.27,-46.88 56.16,-43.1"/>
</g>
<!-- 1880587981 -->
<g id="node5" class="node">
<title>1880587981</title>
<ellipse fill="#78f7c2" stroke="black" cx="126.51" cy="-18" rx="35.49" ry="18"/>
<text text-anchor="middle" x="126.51" y="-12.95" font-family="Times,serif" font-size="14.00">Т 0.10</text>
</g>
<!-- 51228289&#45;&gt;1880587981 -->
<g id="edge4" class="edge">
<title>51228289&#45;&gt;1880587981</title>
<path fill="none" stroke="black" d="M91.72,-73.12C97.11,-64.73 103.85,-54.24 109.97,-44.73"/>
<polygon fill="black" stroke="black" points="112.74,-46.88 115.21,-36.58 106.86,-43.1 112.74,-46.88"/>
</g>
</g>
</svg>
<?xml version="1.0" encoding="UTF-8" standalone="no"?>
<!DOCTYPE svg PUBLIC "-//W3C//DTD SVG 1.1//EN"
 "http://www.w3.org/Graphics/SVG/1.1/DTD/svg11.dtd">
<!-- Generated by graphviz version 10.0.1 (0)
 -->
<!-- Title: BST Pages: 1 -->
<svg width="402pt" height="188pt"
 viewBox="0.00 0.00 402.30 188.00" xmlns="http://www.w3.org/2000/svg" xmlns:xlink="http://www.w3.org/1999/xlink">
<g id="page0,1_graph0" class="graph" transform="scale(1 1) rotate(0) translate(4 184)">
<title>BST</title>
<polygon fill="white" stroke="none" points="-4,4 -4,-184 398.3,-184 398.3,4 -4,4"/>
<!-- 511754216 -->
<g id="node1" class="node">
<title>511754216</title>
<ellipse fill="none" stroke="black" cx="195.14" cy="-162" rx="27.3" ry="18"/>
<text text-anchor="middle" x="195.14" y="-156.95" font-family="Times,serif" font-size="14.00">2.50</text>
</g>
<!-- 1721931908 -->
<g id="node2" class="node">
<title>1721931908</title>
<ellipse fill="none" stroke="black" cx="144.14" cy="-90" rx="27.3" ry="18"/>
<text text-anchor="middle" x="144.14" y="-84.95" font-family="Times,serif" font-size="14.00">1.50</text>
</g>
<!-- 511754216&#45;&gt;1721931908 -->
<g id="edge1" class="edge">
<title>511754216&#45;&gt;1721931908</title>
<path fill="none" stroke="black" d="M183.82,-145.46C177.42,-136.67 169.26,-125.48 162.01,-115.53"/>
<polygon fill="black" stroke="black" points="165.03,-113.74 156.32,-107.72 159.38,-117.86 165.03,-113.74"/>
</g>
<!-- 1198108795 -->
<g id="node3" class="node">
<title>1198108795</title>
<ellipse fill="none" stroke="black" cx="247.14" cy="-90" rx="27.3" ry="18"/>
<text text-anchor="middle" x="247.14" y="-84.95" font-family="Times,serif" font-size="14.00">1.00</text>
</g>
<!-- 511754216&#45;&gt;1198108795 -->
<g id="edge2" class="edge">
<title>511754216&#45;&gt;1198108795</title>
<path fill="none" stroke="black" d="M206.68,-145.46C213.21,-136.67 221.52,-125.48 228.92,-115.53"/>
<polygon fill="black" stroke="black" points="231.57,-117.82 234.73,-107.71 225.96,-113.65 231.57,-117.82"/>
</g>
<!-- 214126413 -->
<g id="node4" class="node">
<title>214126413</title>
<ellipse fill="#78f7c2" stroke="black" cx="42.14" cy="-18" rx="42.14" ry="18"/>
<text text-anchor="middle" x="42.14" y="-12.95" font-family="Times,serif" font-size="14.00">КК 1.00</text>
</g>
<!-- 1721931908&#45;&gt;214126413 -->
<g id="edge3" class="edge">
<title>1721931908&#45;&gt;214126413</title>
<path fill="none" stroke="black" d="M125.9,-76.49C111.21,-66.4 90.21,-51.99 72.92,-40.12"/>
<polygon fill="black" stroke="black" points="75.23,-37.46 65,-34.69 71.27,-43.24 75.23,-37.46"/>
</g>
<!-- 396873410 -->
<g id="node5" class="node">
<title>396873410</title>
<ellipse fill="#78f7c2" stroke="black" cx="144.14" cy="-18" rx="42.14" ry="18"/>
<text text-anchor="middle" x="144.14" y="-12.95" font-family="Times,serif" font-size="14.00">ТИ 0.50</text>
</g>
<!-- 1721931908&#45;&gt;396873410 -->
<g id="edge4" class="edge">
<title>1721931908&#45;&gt;396873410</title>
<path fill="none" stroke="black" d="M144.14,-71.7C144.14,-64.41 144.14,-55.73 144.14,-47.54"/>
<polygon fill="black" stroke="black" points="147.64,-47.62 144.14,-37.62 140.64,-47.62 147.64,-47.62"/>
</g>
<!-- 1706234378 -->
<g id="node6" class="node">
<title>1706234378</title>
<ellipse fill="#78f7c2" stroke="black" cx="247.14" cy="-18" rx="42.65" ry="18"/>
<text text-anchor="middle" x="247.14" y="-12.95" font-family="Times,serif" font-size="14.00">ИК 0.50</text>
</g>
<!-- 1198108795&#45;&gt;1706234378 -->
<g id="edge5" class="edge">
<title>1198108795&#45;&gt;1706234378</title>
<path fill="none" stroke="black" d="M247.14,-71.7C247.14,-64.41 247.14,-55.73 247.14,-47.54"/>
<polygon fill="black" stroke="black" points="250.64,-47.62 247.14,-37.62 243.64,-47.62 250.64,-47.62"/>
</g>
<!-- 1867750575 -->
<g id="node7" class="node">
<title>1867750575</title>
<ellipse fill="#78f7c2" stroke="black" cx="351.14" cy="-18" rx="43.16" ry="18"/>
<text text-anchor="middle" x="351.14" y="-12.95" font-family="Times,serif" font-size="14.00">ИИ 0.50</text>
</g>
<!-- 1198108795&#45;&gt;1867750575 -->
<g id="edge6" class="edge">
<title>1198108795&#45;&gt;1867750575</title>
<path fill="none" stroke="black" d="M265.73,-76.49C280.72,-66.4 302.12,-51.99 319.76,-40.12"/>
<polygon fill="black" stroke="black" points="321.5,-43.17 327.84,-34.68 317.59,-37.36 321.5,-43.17"/>
</g>
</g>
</svg>
